<mxfile host="app.diagrams.net" modified="2023-11-06T02:25:01.113Z" agent="Mozilla/5.0 (Windows NT 10.0; Win64; x64) AppleWebKit/537.36 (KHTML, like Gecko) Chrome/118.0.0.0 Safari/537.36 Edg/118.0.2088.57" etag="y9WacB8yCfVeakQneq57" version="22.0.8" type="github">
  <diagram name="Page-1" id="74e2e168-ea6b-b213-b513-2b3c1d86103e">
    <mxGraphModel dx="712" dy="785" grid="1" gridSize="10" guides="1" tooltips="1" connect="1" arrows="1" fold="1" page="1" pageScale="1" pageWidth="1100" pageHeight="850" background="none" math="0" shadow="0">
      <root>
        <mxCell id="0" />
        <mxCell id="1" parent="0" />
        <mxCell id="77e6c97f196da883-1" value="Pool" style="swimlane;html=1;childLayout=stackLayout;startSize=20;rounded=0;shadow=0;labelBackgroundColor=none;strokeWidth=1;fontFamily=Verdana;fontSize=8;align=center;" parent="1" vertex="1">
          <mxGeometry x="70" y="40" width="990" height="750" as="geometry" />
        </mxCell>
        <mxCell id="77e6c97f196da883-2" value="Lane 1" style="swimlane;html=1;startSize=20;" parent="77e6c97f196da883-1" vertex="1">
          <mxGeometry y="20" width="160" height="730" as="geometry" />
        </mxCell>
        <mxCell id="77e6c97f196da883-8" value="" style="rounded=1;whiteSpace=wrap;html=1;shadow=0;labelBackgroundColor=none;strokeWidth=1;fontFamily=Verdana;fontSize=8;align=center;" parent="77e6c97f196da883-2" vertex="1">
          <mxGeometry x="20" y="65" width="100" height="60" as="geometry" />
        </mxCell>
        <mxCell id="77e6c97f196da883-9" value="" style="rounded=1;whiteSpace=wrap;html=1;shadow=0;labelBackgroundColor=none;strokeWidth=1;fontFamily=Verdana;fontSize=8;align=center;" parent="77e6c97f196da883-2" vertex="1">
          <mxGeometry x="20" y="155" width="100" height="60" as="geometry" />
        </mxCell>
        <mxCell id="77e6c97f196da883-10" value="" style="rounded=1;whiteSpace=wrap;html=1;shadow=0;labelBackgroundColor=none;strokeWidth=1;fontFamily=Verdana;fontSize=8;align=center;" parent="77e6c97f196da883-2" vertex="1">
          <mxGeometry x="30" y="560" width="100" height="60" as="geometry" />
        </mxCell>
        <mxCell id="77e6c97f196da883-26" style="edgeStyle=orthogonalEdgeStyle;rounded=1;html=1;labelBackgroundColor=none;startArrow=none;startFill=0;startSize=5;endArrow=classicThin;endFill=1;endSize=5;jettySize=auto;orthogonalLoop=1;strokeWidth=1;fontFamily=Verdana;fontSize=8" parent="77e6c97f196da883-1" source="77e6c97f196da883-8" target="77e6c97f196da883-11" edge="1">
          <mxGeometry relative="1" as="geometry" />
        </mxCell>
        <mxCell id="77e6c97f196da883-27" style="edgeStyle=orthogonalEdgeStyle;rounded=1;html=1;labelBackgroundColor=none;startArrow=none;startFill=0;startSize=5;endArrow=classicThin;endFill=1;endSize=5;jettySize=auto;orthogonalLoop=1;strokeWidth=1;fontFamily=Verdana;fontSize=8" parent="77e6c97f196da883-1" source="77e6c97f196da883-11" target="77e6c97f196da883-9" edge="1">
          <mxGeometry relative="1" as="geometry">
            <Array as="points">
              <mxPoint x="240" y="155" />
              <mxPoint x="70" y="155" />
            </Array>
          </mxGeometry>
        </mxCell>
        <mxCell id="77e6c97f196da883-28" style="edgeStyle=orthogonalEdgeStyle;rounded=1;html=1;labelBackgroundColor=none;startArrow=none;startFill=0;startSize=5;endArrow=classicThin;endFill=1;endSize=5;jettySize=auto;orthogonalLoop=1;strokeWidth=1;fontFamily=Verdana;fontSize=8" parent="77e6c97f196da883-1" source="77e6c97f196da883-9" target="77e6c97f196da883-12" edge="1">
          <mxGeometry relative="1" as="geometry" />
        </mxCell>
        <mxCell id="77e6c97f196da883-30" style="edgeStyle=orthogonalEdgeStyle;rounded=1;html=1;labelBackgroundColor=none;startArrow=none;startFill=0;startSize=5;endArrow=classicThin;endFill=1;endSize=5;jettySize=auto;orthogonalLoop=1;strokeWidth=1;fontFamily=Verdana;fontSize=8" parent="77e6c97f196da883-1" source="77e6c97f196da883-13" target="77e6c97f196da883-9" edge="1">
          <mxGeometry relative="1" as="geometry" />
        </mxCell>
        <mxCell id="77e6c97f196da883-31" style="edgeStyle=orthogonalEdgeStyle;rounded=1;html=1;labelBackgroundColor=none;startArrow=none;startFill=0;startSize=5;endArrow=classicThin;endFill=1;endSize=5;jettySize=auto;orthogonalLoop=1;strokeWidth=1;fontFamily=Verdana;fontSize=8" parent="77e6c97f196da883-1" source="77e6c97f196da883-16" target="77e6c97f196da883-9" edge="1">
          <mxGeometry relative="1" as="geometry" />
        </mxCell>
        <mxCell id="77e6c97f196da883-32" style="edgeStyle=orthogonalEdgeStyle;rounded=1;html=1;labelBackgroundColor=none;startArrow=none;startFill=0;startSize=5;endArrow=classicThin;endFill=1;endSize=5;jettySize=auto;orthogonalLoop=1;strokeWidth=1;fontFamily=Verdana;fontSize=8" parent="77e6c97f196da883-1" source="77e6c97f196da883-20" target="77e6c97f196da883-9" edge="1">
          <mxGeometry relative="1" as="geometry">
            <Array as="points">
              <mxPoint x="20" y="690" />
              <mxPoint x="20" y="370" />
              <mxPoint x="70" y="370" />
            </Array>
          </mxGeometry>
        </mxCell>
        <mxCell id="77e6c97f196da883-33" style="edgeStyle=orthogonalEdgeStyle;rounded=1;html=1;labelBackgroundColor=none;startArrow=none;startFill=0;startSize=5;endArrow=classicThin;endFill=1;endSize=5;jettySize=auto;orthogonalLoop=1;strokeWidth=1;fontFamily=Verdana;fontSize=8" parent="77e6c97f196da883-1" source="77e6c97f196da883-13" target="77e6c97f196da883-15" edge="1">
          <mxGeometry relative="1" as="geometry" />
        </mxCell>
        <mxCell id="77e6c97f196da883-39" style="edgeStyle=orthogonalEdgeStyle;rounded=1;html=1;labelBackgroundColor=none;startArrow=none;startFill=0;startSize=5;endArrow=classicThin;endFill=1;endSize=5;jettySize=auto;orthogonalLoop=1;strokeWidth=1;fontFamily=Verdana;fontSize=8" parent="77e6c97f196da883-1" source="77e6c97f196da883-20" target="77e6c97f196da883-23" edge="1">
          <mxGeometry relative="1" as="geometry" />
        </mxCell>
        <mxCell id="77e6c97f196da883-40" style="edgeStyle=orthogonalEdgeStyle;rounded=1;html=1;labelBackgroundColor=none;startArrow=none;startFill=0;startSize=5;endArrow=classicThin;endFill=1;endSize=5;jettySize=auto;orthogonalLoop=1;strokeWidth=1;fontFamily=Verdana;fontSize=8" parent="77e6c97f196da883-1" source="77e6c97f196da883-23" target="77e6c97f196da883-24" edge="1">
          <mxGeometry relative="1" as="geometry" />
        </mxCell>
        <mxCell id="107ba76e4e335f99-1" style="edgeStyle=orthogonalEdgeStyle;rounded=1;html=1;labelBackgroundColor=none;startArrow=none;startFill=0;startSize=5;endArrow=classicThin;endFill=1;endSize=5;jettySize=auto;orthogonalLoop=1;strokeWidth=1;fontFamily=Verdana;fontSize=8" parent="77e6c97f196da883-1" source="77e6c97f196da883-17" target="77e6c97f196da883-18" edge="1">
          <mxGeometry relative="1" as="geometry" />
        </mxCell>
        <mxCell id="107ba76e4e335f99-2" style="edgeStyle=orthogonalEdgeStyle;rounded=1;html=1;labelBackgroundColor=none;startArrow=none;startFill=0;startSize=5;endArrow=classicThin;endFill=1;endSize=5;jettySize=auto;orthogonalLoop=1;strokeWidth=1;fontFamily=Verdana;fontSize=8" parent="77e6c97f196da883-1" source="77e6c97f196da883-22" target="77e6c97f196da883-14" edge="1">
          <mxGeometry relative="1" as="geometry">
            <Array as="points">
              <mxPoint x="660" y="610" />
              <mxPoint x="660" y="550" />
              <mxPoint x="400" y="550" />
            </Array>
          </mxGeometry>
        </mxCell>
        <mxCell id="107ba76e4e335f99-3" style="edgeStyle=orthogonalEdgeStyle;rounded=1;html=1;labelBackgroundColor=none;startArrow=none;startFill=0;startSize=5;endArrow=classicThin;endFill=1;endSize=5;jettySize=auto;orthogonalLoop=1;strokeColor=#000000;strokeWidth=1;fontFamily=Verdana;fontSize=8;fontColor=#000000;" parent="77e6c97f196da883-1" source="77e6c97f196da883-22" target="77e6c97f196da883-19" edge="1">
          <mxGeometry relative="1" as="geometry" />
        </mxCell>
        <mxCell id="107ba76e4e335f99-4" style="edgeStyle=orthogonalEdgeStyle;rounded=1;html=1;labelBackgroundColor=none;startArrow=none;startFill=0;startSize=5;endArrow=classicThin;endFill=1;endSize=5;jettySize=auto;orthogonalLoop=1;strokeWidth=1;fontFamily=Verdana;fontSize=8" parent="77e6c97f196da883-1" source="77e6c97f196da883-22" target="77e6c97f196da883-10" edge="1">
          <mxGeometry relative="1" as="geometry">
            <Array as="points">
              <mxPoint x="660" y="610" />
              <mxPoint x="660" y="550" />
              <mxPoint x="80" y="550" />
            </Array>
          </mxGeometry>
        </mxCell>
        <mxCell id="107ba76e4e335f99-5" style="edgeStyle=orthogonalEdgeStyle;rounded=1;html=1;labelBackgroundColor=none;startArrow=none;startFill=0;startSize=5;endArrow=classicThin;endFill=1;endSize=5;jettySize=auto;orthogonalLoop=1;strokeWidth=1;fontFamily=Verdana;fontSize=8" parent="77e6c97f196da883-1" source="77e6c97f196da883-10" target="77e6c97f196da883-19" edge="1">
          <mxGeometry relative="1" as="geometry">
            <Array as="points">
              <mxPoint x="80" y="650" />
              <mxPoint x="490" y="650" />
              <mxPoint x="490" y="610" />
            </Array>
          </mxGeometry>
        </mxCell>
        <mxCell id="107ba76e4e335f99-6" style="edgeStyle=orthogonalEdgeStyle;rounded=1;html=1;labelBackgroundColor=none;startArrow=none;startFill=0;startSize=5;endArrow=classicThin;endFill=1;endSize=5;jettySize=auto;orthogonalLoop=1;strokeWidth=1;fontFamily=Verdana;fontSize=8" parent="77e6c97f196da883-1" source="77e6c97f196da883-14" target="77e6c97f196da883-19" edge="1">
          <mxGeometry relative="1" as="geometry" />
        </mxCell>
        <mxCell id="77e6c97f196da883-3" value="Lane 2" style="swimlane;html=1;startSize=20;" parent="77e6c97f196da883-1" vertex="1">
          <mxGeometry x="160" y="20" width="160" height="730" as="geometry" />
        </mxCell>
        <mxCell id="77e6c97f196da883-11" value="" style="rounded=1;whiteSpace=wrap;html=1;shadow=0;labelBackgroundColor=none;strokeWidth=1;fontFamily=Verdana;fontSize=8;align=center;" parent="77e6c97f196da883-3" vertex="1">
          <mxGeometry x="30" y="65" width="100" height="60" as="geometry" />
        </mxCell>
        <mxCell id="77e6c97f196da883-4" value="Lane 3" style="swimlane;html=1;startSize=20;" parent="77e6c97f196da883-1" vertex="1">
          <mxGeometry x="320" y="20" width="160" height="730" as="geometry" />
        </mxCell>
        <mxCell id="77e6c97f196da883-12" value="" style="rounded=1;whiteSpace=wrap;html=1;shadow=0;labelBackgroundColor=none;strokeWidth=1;fontFamily=Verdana;fontSize=8;align=center;" parent="77e6c97f196da883-4" vertex="1">
          <mxGeometry x="30" y="155" width="100" height="60" as="geometry" />
        </mxCell>
        <mxCell id="77e6c97f196da883-13" value="" style="rhombus;whiteSpace=wrap;html=1;rounded=0;shadow=0;labelBackgroundColor=none;strokeWidth=1;fontFamily=Verdana;fontSize=8;align=center;" parent="77e6c97f196da883-4" vertex="1">
          <mxGeometry x="40" y="240" width="80" height="60" as="geometry" />
        </mxCell>
        <mxCell id="77e6c97f196da883-14" value="" style="rounded=1;whiteSpace=wrap;html=1;shadow=0;labelBackgroundColor=none;strokeWidth=1;fontFamily=Verdana;fontSize=8;align=center;" parent="77e6c97f196da883-4" vertex="1">
          <mxGeometry x="30" y="560" width="100" height="60" as="geometry" />
        </mxCell>
        <mxCell id="77e6c97f196da883-29" style="edgeStyle=orthogonalEdgeStyle;rounded=1;html=1;labelBackgroundColor=none;startArrow=none;startFill=0;startSize=5;endArrow=classicThin;endFill=1;endSize=5;jettySize=auto;orthogonalLoop=1;strokeWidth=1;fontFamily=Verdana;fontSize=8" parent="77e6c97f196da883-4" source="77e6c97f196da883-12" target="77e6c97f196da883-13" edge="1">
          <mxGeometry relative="1" as="geometry" />
        </mxCell>
        <mxCell id="77e6c97f196da883-5" value="Lane 4" style="swimlane;html=1;startSize=20;" parent="77e6c97f196da883-1" vertex="1">
          <mxGeometry x="480" y="20" width="160" height="730" as="geometry" />
        </mxCell>
        <mxCell id="77e6c97f196da883-15" value="" style="rounded=1;whiteSpace=wrap;html=1;shadow=0;labelBackgroundColor=none;strokeWidth=1;fontFamily=Verdana;fontSize=8;align=center;" parent="77e6c97f196da883-5" vertex="1">
          <mxGeometry x="30" y="240" width="100" height="60" as="geometry" />
        </mxCell>
        <mxCell id="77e6c97f196da883-16" value="" style="rhombus;whiteSpace=wrap;html=1;rounded=0;shadow=0;labelBackgroundColor=none;strokeWidth=1;fontFamily=Verdana;fontSize=8;align=center;" parent="77e6c97f196da883-5" vertex="1">
          <mxGeometry x="40" y="320" width="80" height="60" as="geometry" />
        </mxCell>
        <mxCell id="77e6c97f196da883-17" value="" style="rounded=1;whiteSpace=wrap;html=1;shadow=0;labelBackgroundColor=none;strokeWidth=1;fontFamily=Verdana;fontSize=8;align=center;" parent="77e6c97f196da883-5" vertex="1">
          <mxGeometry x="30" y="400" width="100" height="60" as="geometry" />
        </mxCell>
        <mxCell id="77e6c97f196da883-19" value="" style="rounded=1;whiteSpace=wrap;html=1;shadow=0;labelBackgroundColor=none;strokeWidth=1;fontFamily=Verdana;fontSize=8;align=center;" parent="77e6c97f196da883-5" vertex="1">
          <mxGeometry x="30" y="560" width="100" height="60" as="geometry" />
        </mxCell>
        <mxCell id="77e6c97f196da883-20" value="" style="rhombus;whiteSpace=wrap;html=1;rounded=0;shadow=0;labelBackgroundColor=none;strokeWidth=1;fontFamily=Verdana;fontSize=8;align=center;" parent="77e6c97f196da883-5" vertex="1">
          <mxGeometry x="40" y="640" width="80" height="60" as="geometry" />
        </mxCell>
        <mxCell id="77e6c97f196da883-34" style="edgeStyle=orthogonalEdgeStyle;rounded=1;html=1;labelBackgroundColor=none;startArrow=none;startFill=0;startSize=5;endArrow=classicThin;endFill=1;endSize=5;jettySize=auto;orthogonalLoop=1;strokeColor=#000000;strokeWidth=1;fontFamily=Verdana;fontSize=8;fontColor=#000000;" parent="77e6c97f196da883-5" source="77e6c97f196da883-15" target="77e6c97f196da883-16" edge="1">
          <mxGeometry relative="1" as="geometry" />
        </mxCell>
        <mxCell id="77e6c97f196da883-35" style="edgeStyle=orthogonalEdgeStyle;rounded=1;html=1;labelBackgroundColor=none;startArrow=none;startFill=0;startSize=5;endArrow=classicThin;endFill=1;endSize=5;jettySize=auto;orthogonalLoop=1;strokeWidth=1;fontFamily=Verdana;fontSize=8" parent="77e6c97f196da883-5" source="77e6c97f196da883-16" target="77e6c97f196da883-17" edge="1">
          <mxGeometry relative="1" as="geometry" />
        </mxCell>
        <mxCell id="77e6c97f196da883-36" style="edgeStyle=orthogonalEdgeStyle;rounded=1;html=1;labelBackgroundColor=none;startArrow=none;startFill=0;startSize=5;endArrow=classicThin;endFill=1;endSize=5;jettySize=auto;orthogonalLoop=1;strokeWidth=1;fontFamily=Verdana;fontSize=8" parent="77e6c97f196da883-5" source="77e6c97f196da883-19" target="77e6c97f196da883-20" edge="1">
          <mxGeometry relative="1" as="geometry" />
        </mxCell>
        <mxCell id="77e6c97f196da883-6" value="Lane 5" style="swimlane;html=1;startSize=20;" parent="77e6c97f196da883-1" vertex="1">
          <mxGeometry x="640" y="20" width="160" height="730" as="geometry" />
        </mxCell>
        <mxCell id="77e6c97f196da883-18" value="" style="rounded=1;whiteSpace=wrap;html=1;shadow=0;labelBackgroundColor=none;strokeWidth=1;fontFamily=Verdana;fontSize=8;align=center;" parent="77e6c97f196da883-6" vertex="1">
          <mxGeometry x="30" y="400" width="100" height="60" as="geometry" />
        </mxCell>
        <mxCell id="77e6c97f196da883-21" value="" style="rounded=1;whiteSpace=wrap;html=1;shadow=0;labelBackgroundColor=none;strokeWidth=1;fontFamily=Verdana;fontSize=8;align=center;" parent="77e6c97f196da883-6" vertex="1">
          <mxGeometry x="30" y="480" width="100" height="60" as="geometry" />
        </mxCell>
        <mxCell id="77e6c97f196da883-22" value="" style="rounded=1;whiteSpace=wrap;html=1;shadow=0;labelBackgroundColor=none;strokeWidth=1;fontFamily=Verdana;fontSize=8;align=center;" parent="77e6c97f196da883-6" vertex="1">
          <mxGeometry x="30" y="560" width="100" height="60" as="geometry" />
        </mxCell>
        <mxCell id="77e6c97f196da883-23" value="" style="rounded=1;whiteSpace=wrap;html=1;shadow=0;labelBackgroundColor=none;strokeWidth=1;fontFamily=Verdana;fontSize=8;align=center;" parent="77e6c97f196da883-6" vertex="1">
          <mxGeometry x="30" y="640" width="100" height="60" as="geometry" />
        </mxCell>
        <mxCell id="77e6c97f196da883-37" style="edgeStyle=orthogonalEdgeStyle;rounded=1;html=1;labelBackgroundColor=none;startArrow=none;startFill=0;startSize=5;endArrow=classicThin;endFill=1;endSize=5;jettySize=auto;orthogonalLoop=1;strokeWidth=1;fontFamily=Verdana;fontSize=8" parent="77e6c97f196da883-6" source="77e6c97f196da883-18" target="77e6c97f196da883-21" edge="1">
          <mxGeometry relative="1" as="geometry" />
        </mxCell>
        <mxCell id="77e6c97f196da883-38" style="edgeStyle=orthogonalEdgeStyle;rounded=1;html=1;labelBackgroundColor=none;startArrow=none;startFill=0;startSize=5;endArrow=classicThin;endFill=1;endSize=5;jettySize=auto;orthogonalLoop=1;strokeWidth=1;fontFamily=Verdana;fontSize=8" parent="77e6c97f196da883-6" source="77e6c97f196da883-21" target="77e6c97f196da883-22" edge="1">
          <mxGeometry relative="1" as="geometry" />
        </mxCell>
        <mxCell id="77e6c97f196da883-7" value="Lane 6" style="swimlane;html=1;startSize=20;" parent="77e6c97f196da883-1" vertex="1">
          <mxGeometry x="800" y="20" width="190" height="730" as="geometry" />
        </mxCell>
        <mxCell id="77e6c97f196da883-24" value="" style="rounded=1;whiteSpace=wrap;html=1;shadow=0;labelBackgroundColor=none;strokeWidth=1;fontFamily=Verdana;fontSize=8;align=center;" parent="77e6c97f196da883-7" vertex="1">
          <mxGeometry x="30" y="640" width="100" height="60" as="geometry" />
        </mxCell>
        <mxCell id="GHgbFSb3c3Rn6bLQLyni-1" value="" style="shape=image;imageAspect=0;aspect=fixed;verticalLabelPosition=bottom;verticalAlign=top;image=data:image/jpeg,/9j/4QAYRXhpZgAASUkqAAgAAAAAAAAAAAAAAP/sABFEdWNreQABAAQAAAA8AAD/4QN8aHR0cDovL25zLmFkb2JlLmNvbS94YXAvMS4wLwA8P3hwYWNrZXQgYmVnaW49Iu+7vyIgaWQ9Ilc1TTBNcENlaGlIenJlU3pOVGN6a2M5ZCI/PiA8eDp4bXBtZXRhIHhtbG5zOng9ImFkb2JlOm5zOm1ldGEvIiB4OnhtcHRrPSJBZG9iZSBYTVAgQ29yZSA1LjUtYzAyMSA3OS4xNTU3NzIsIDIwMTQvMDEvMTMtMTk6NDQ6MDAgICAgICAgICI+IDxyZGY6UkRGIHhtbG5zOnJkZj0iaHR0cDovL3d3dy53My5vcmcvMTk5OS8wMi8yMi1yZGYtc3ludGF4LW5zIyI+IDxyZGY6RGVzY3JpcHRpb24gcmRmOmFib3V0PSIiIHhtbG5zOnhtcE1NPSJodHRwOi8vbnMuYWRvYmUuY29tL3hhcC8xLjAvbW0vIiB4bWxuczpzdFJlZj0iaHR0cDovL25zLmFkb2JlLmNvbS94YXAvMS4wL3NUeXBlL1Jlc291cmNlUmVmIyIgeG1sbnM6eG1wPSJodHRwOi8vbnMuYWRvYmUuY29tL3hhcC8xLjAvIiB4bXBNTTpPcmlnaW5hbERvY3VtZW50SUQ9InhtcC5kaWQ6MzEwZTc4MWEtODYzOS00YTAyLThlNTMtNmQ0ODU2ODYwZjAxIiB4bXBNTTpEb2N1bWVudElEPSJ4bXAuZGlkOkQ0RjA0NjY1QzVGRjExRTQ5MDEzQjhBNDc0MUQzNDMyIiB4bXBNTTpJbnN0YW5jZUlEPSJ4bXAuaWlkOkQ0RjA0NjY0QzVGRjExRTQ5MDEzQjhBNDc0MUQzNDMyIiB4bXA6Q3JlYXRvclRvb2w9IkFkb2JlIFBob3Rvc2hvcCBDQyAoTWFjaW50b3NoKSI+IDx4bXBNTTpEZXJpdmVkRnJvbSBzdFJlZjppbnN0YW5jZUlEPSJ4bXAuaWlkOjkyMDcyZWU3LWIxZWYtNDBkZi05YTQ3LTcwN2U1NjA4ZmZjNyIgc3RSZWY6ZG9jdW1lbnRJRD0ieG1wLmRpZDozMTBlNzgxYS04NjM5LTRhMDItOGU1My02ZDQ4NTY4NjBmMDEiLz4gPC9yZGY6RGVzY3JpcHRpb24+IDwvcmRmOlJERj4gPC94OnhtcG1ldGE+IDw/eHBhY2tldCBlbmQ9InIiPz7/7gAOQWRvYmUAZMAAAAAB//4ALE9wdGltaXplZCBieSBKUEVHbWluaSAzLjExLjQuMyAweDZiYmIzYzI0AP/bAEMABgQEBAUEBgUFBgoGBQYKDAgGBggMDQsLDAsaGREcGxkbGh0jJyMfIScgGhUnMhYqLB8eHh4fIiIiIiIiIiIiIv/bAEMBBwcHDg0OGhERGhwXEhccIiIiIiIiIiIiIiIiIiIiIiIiIiIiIiIiIiIiIiIiIiIiIiIiIiIiIiIiIiIiIiIiIv/AABEIANwA3AMBEQACEQEDEQH/xAAcAAADAAMBAQEAAAAAAAAAAAACAwQBBQYABwj/xABEEAABBAECAwQHBQYDBgcAAAACAAEDBAUREgYTISIxMkEHFFFSYXGRFSNCgaEkM0NUYnIWNLFEU4Ki0fAIFyWDwcLh/8QAGwEAAgMBAQEAAAAAAAAAAAAAAQIAAwUEBgf/xAA5EQACAgECAwQJAwQCAQUAAAAAAQIRAwQhEjFRBRNBYRQVIjJxgZGhsQZC0SPB4fAzUkNicoKS4v/aAAwDAQACEQMRAD8A7RfPDDMohCZQhllAhMiQLaiEPaoGgtqIQtilEoLYjQQmBGiUEwKUGjOxSiUe2KUSj2xSiUY2KUSjDgpRKBcEKAC4KUCgXFAgLigABxUAC6BAXQAC6gAXZQh5ABhQhlEJllCBsoEJkQhMKJA9qIQ9qlBD2ohDEEaDQexGg0GwI0GguWpRKMtGjQaPctSiUe5alEoxy1KJRhwQoFAOCFAoFwUoFAOCAKFuCFEAcUAAOgAB0AAqABdkAGNFCGEAGWRCGygQmRCGyJAxFEYYIohGCCNBoYII0GhggjQaGctNQ1BtGjRKCaNGg0Fy1KDR7lo0Sj3LQolGOWpQKBeNCiUA8aFAoWUaFAoWQIUCgHBCgULIUooshQoAshQAA6gAXZAADsgAwoQJlAhsiENkSBiiMNEUQjRFMEaIIpDJDRBNQ1DRjTJBoYMaNBoYMaag0G0SNBoJolKDRnlI0SjDxKUSjDxIUCgHiQolAFGhQKFFGlaBQogStC0LIEKBQohS0LQohQFFEKUAskAAEyAAHZQAOnVAAbIhDFEIwRRGGiKIRoAmSGSHCCahqHACZIKRbVoSzi5A7fVdum0U8quNFsMTkUhiZ/aP1XT6qy9Y/wC/Is7hjPsuf2j9UfVWTqv9+Qe5YxsbN7R+qPqvJ1X+/IndMNsdL7R+qPqzJ1X+/IPdMJsZN7R+qPqzJ1X+/IndM8+OlbzH6qerMnkTumC9GT4fVT1Zk8g90wHpH8EPVmTyB3TBelJ8Pqh6syeRO6YL46V/Mfqh6ryeQO5YD4ud/d+qHqrL5A7li3xFh+7b9UvqrL5A7hkNiuUUhRlpuFZ+bE4ScXzRTKNOiYwVLQjQkwStCtCiFAAohSiiyZAAt2QADp1QAGKYIwVAjRFMMOEUww4BTIKHgCZIZIeAJ0h0jeYOrzY5G3beq3uyfckvM6cPI2E1aOAdxys3zZaspJcy1sj+0caz6PZBU+kw6g40ZbIY3+ZFT0mHUnGjP2hjv5kFPSYdScaPfaOPb/aAU9Jh1Jxow+Sxz/7QCnpMOoONAlkMd/Mgh6TDqHjQt8hjv5oGU9Jh1B3iB+0cZ52wU9Jh1J3iMjkscRsEdhjN+4Bbc7qelQ6keVIeFipvCOSVwOTqLEBN07lz5u1MGKcYTlUpcvxb6K9ty/Finki5RVpFxY8g7z0/JaJXZzWRjb1uXR9eq8rrv+aXxOPJ7zITBcTRU0IMErQrQgxSMViSFAViiZKwC3ZAUDTqgQYKIUMFEI4BTDIeApkMkPjBOkMkURgmSHSKIwViQyRuMGWyYx95lq9lyqbXVF2Im46lkjxZlG+nRduvk1AOV7HwyfKZHnF94XesHYwpZ52ZHK5Fv4pJbCs8xkOSyMsoxtKTEb6KDRzTbqzeYzh3jTJDIVeGT7t9O14X/NXQwTkrS2OiGPNI37ejniJ8ZzCyEMeQ115JSd6s9HVbzhfTiOr0LK4/+o1BcEccRhJNODtBG2u+MuZr9EPRp1aVrydnP6NmXvHJ2ruXgdua5gxO7Bu1Z3ZlWkjPyZckeZIWWyP+8L6plFFL1MwTyNyehLXIwk5ksb2K0071GmhZi6MfwLR9vTd09i6cCivGjf8A012vg0+TJLO6k4pQlV8O/tfVG84bxecmgetg6gSc6MIbMcWYkd3Ha7F4m06u+vTXTuZDLpcGaS4oxnJcrPc6Tt3Q5k+LJy64vxX0Pu+Hx8uH4axmMnleeajWihmmd3feQs2rrdT4Ib+CPNavLHJllOK4Ytul0XgaSYXInJ+931Xk5u3bMxkxgq2hWicwSNCNCDBI0KxBilYrEGyUUUTICgadUADBRCNBEYeApkMigBToZFEYp0h0UxgnSHSKYwViQyRZV+7lE2/C66ME+CSl0HjsDxfHzsUenXotXXtPHaHyK0fF5sf98XTzXl5ZqMt4dz0eKkkMY4wcjN9BFm70qy26RO4OlxgcB8MSPLxZk64XIn1HGxvzZgL+ph10Wvh06guLJu/CPj8z0HZv6c1GZKUMbafi9l9WdAHpp9G1h2hHLciNugAcEwRt+i49U8+Xn7vTwPRL9M6vGtsf0lH+TcUs9wrmW5eOytS5I/8ACjmDmfTvWZn0cuE48mlz4d5wnFeadC7VbLY6T1igZxu34PwusqGqzaedwbixoTx5FwzVkWS4fw/FsQSnSaDJR6BPJC+0x+Onc7fqy9Zotbj1kLrhyx51+aMbtDsqCe/Lwf8AY+W5DBR1yE4J4rtKdnOrdgffFKGrt0f5s/5pMrcJUzz2p7Pnhm4TVSRrpMd8FI5jjlpz6D6LanLt66Lt0MryGpoYcKPqOSkd49rd5dPyWpr8lY66mhN7GmkBYDRQ0TSAkaFaJpAVbQjRMYpGhGTmKRisQbJWKxJMlYrF6dUADARQUOBMhkUAKZDIojFOkOimMVYkMiqMFYkOiqMFYkOiqMFYkMjGZHXGvG/XsrRzf8C+BZR81no/eloPmvF5J7id2Db9axuByN+m3/qZtDj8Xo/hsylsZ2+WpP8AktPseHFOUv8AqtvizS7J0sJ54qfuR9qXwjv9zneLPRNhP8UWa2Lt/ZOJrS1cWNqzzbUlvKSdraOnwcN3u9e/rp6HJplxUnS5dbZ7rs/9R5VhTyR7yb4pVGo8OOPNv70aL/yjvHO8UGTimf7Z/wAPx7Y5O3Kw7jL5D29f7XVfo0uv7qNKP6khSbg1/SeTmuV0l8/7o9lfRnTp4yjNHkDK/flkrY3ZDJLDdmaQgbQ20aPX3H9j93chPTpJb7v7/wAC6bt+eTJJcH9OKTluk4Lht2n7y80bdsFk8BVsE/pFOkFGx6he5cV+SvHabq4MWmju2j93sVOXs/E/f4dtvd8TkfaGLPJJabi4lxR9y3HrXQbguBON+MaA3JeL5BxFsbBBLI1hikjB3F+z0b5tq+nz6IaTszHH2oKMb8UirV9r6bSz4O5/qR4dvZ2tXz3/AAXcNcPW8Lj8lwfkLUVu/iuXlYeQ0jNFDL2SHtM3mwF+ar7TwtYr8Y/hnkv1DKGoa1EItJ+zv41v5+aDkx2vksGOY8tLCdlwFXaA3LTq/ct3sqVysvxQpHaWWcnZ39i79enxr4FsyOQFnNFbJZAVTQrRLICraEZLIKRoRk0gpGIycxSMViDZKKxenVAAwEQjwTIZFEadDIqjFOh0UxirEh0VxirEh0VxgrUh0UxgrUhkYzAa02b+ld2qVYV8Cyjjjp6m76Lw+aL4mWqJHnBxVPG4y9lrTUsXj8xTuXJyEi8LSuLdNX6ltW/2DSjJvkpI0Oz1PjnGC4pSxyivnX9jTR8YcNNdktQ8QYe+4ZabMY47zXoeTv6aaM2juw9xP4fyW530bvijzvxN71fm4VePLD+nwS4eF399rfPqjbcL5rGer2slbrV60eEiyOawUsB2COSE94lMTF37i3sO7tF12i3m+Ofi62to49Zp5pxhFybnwQnaiuF7NQVdFTdcvF2fNcLx5g5KcOFkafh/FNNXv3LLTS35Wmjfd9yzt92Rl3nr/wBH5IZVVbxXPr9Oh6zV9j54vvFWWaTioqKhakq/qO/ajFeCV/k6rIek2pVCrj5OIyeO2eQsT2qRyWvUicQaBt21t/Vi1+b/AAVzzpbX1866fExcHYeSac+6dwUFT9nj3fH47bci3h70q8FYfgiOxI5/aL1o6542CZnnlld/vD08I6vqWuur6+1GGeEY349Dn1vYOqy6pxS9ni2k/dUf2q/GlsajgzivH8U+lTM3aOPfH1beHkieMz3ySGDxvuL4/D2M3muTVSWSE6X7fwL2v2bPT6KMMjUpLJe3JXex1EtTp3Lx8WeQlA3/AAlDpNpp0Xoux3uKkdZYBtB+S2det0SRFICzJIRksgqpoRkkoqtoRksgqpiMlkFIxGTGyRisQbJWKxWnVKKMBMgooBMh0URp0MiqIU6HRXEKsQ6K4hVqQ6K4xVsUOiqMVdFDIPIx7q+mnktDVR/p/IsRoGqav3Lyc8KbL0aL0hYA8p6POIaMY6zDX9cg08TnE+//AEYlo9mY+Hjj1X4O/szP3eohLzr67Hy7gv0HZTK46DKZuweOpWR31oYg5kxj7X16Mhn1ccaUmpNPlS5/N7HtdR+p4Y24YlxyXNt0vl4s+lh6JqZ4EcE+byL4j+UOcOW/n3MPdr12a7VyrtHLOPCqjHzd/g89k7Zm83fcGPvOvD993z8zVTf+HjhdwfZfsiXvbg/6JlnyrxjL6o7IfqzUrmov5f5NBkfQVhamuuZsj/7Mcn/yyon2zCDqcZL4U0aWH9T5p/8Ajh/9mv7MRi/QVjb9oYY8/PJufTaNHb+rnounT9p4s01DHxylLyX8+BZn/U84Rt44r/5//k73hL0a4DgtrclSaTIZa2HJO7MOzlReYs3x811arKscZQT4pPb4HkO1O2susaUkowXgvzZsJKKwe5Mdo2vDtXly6re7IhTK2jfTNqzLZ1y5CSI5BWXJCMllFVNCsklFUtCMkkFVsRkkjKtlbJpEjFZOaRiMT+JAA0EQofGmQyKY06HRXErEOiuJWodFkStQ6K4ldEdFUauihkPsfu+7yWln90dEYxgTaMzN+SzOFS6Dngi5ZsQtokjj4GmkGxkdMXjjgrbYqottKubeH+111S0+PNDg5R/H/t/gdZWnfiRWqGSqu5QfeRry+r7Kz4Xcfaid2PPjnz2ZrJ8lk2ZwaDQvmsqebMtuE6o4Yc7I4cFlcjPukF9uv0SYOy8+olyf9vqWy1WPGjqKdSvi67wxdqYm0M28vkvZaLRw0kKW+R8308kYuozvK/IkOBnfXXr8VzyxWVWJOo/e7dPgkeB+KJZbioAA+jPr8Vp9nY0mJIukboy0NbyQjJZGWXIRkkrKmQjI5WVUhWSSsqmVsklVbEZLIq2Iyc0rFYnzSihgigoojTodFUadDIriViHRXErUWIsiVsR0VxK6IyKo1dEdDbR7Yn0ZnLTzWnqPdGs5yxYtPu1lJh18l5fPKdvdjpm1xFwbkLg/+Zhb7wWbvH2rS0OZZY1++PP+QMrdjbpqul2iC5740apzym4RB4yZldp1kk+GPME2krZO/ENB5Zot7FLXiGeUWj/hv3K70XLs6ju68Be+XVmK+fp3LY0oZiecofWdm3aPL/7dLm0+aMOKXup1sCOSLdLmVEBO+uuruuFxbZaA8BF3Nql7lslmGpkT6ad/sUWmbJZmlJWeVwhLmOPQibwsurSwSexW5JlBt0ZXazkiMmkZZkhGSSsqZCsklZUyEZHKyqYjJJVWxGSSKtiMnNIxGJ/ElFDBFBRRGnQ6Ko06HRXErEOiuJWodFkXkrYjoriV8R0VRq6IwGW3NWcgfaY+Faef3QTNMFiGzWaRm0LwyD7CWJkcZIMZWjVzHLBM0sJvGYP2SF1jZLhK4umiw2IcU5CZtuoAX9neuz1vml0XyIkjZFbq3aPMlkihh2/tA2AE4mP29VvaHWwlFSp8XkJOP0F2q+NjcZY7lOsUzdjWKIyk8O3Tr100Xd6XBLe9vMrcPgYgGnDbGaOetujHZywgEJWi+bOqJ9oYpQ34v8jLG0/ArtZmlWBjbtk/4WXBl12PGrW5YQwcY4tj/bXesLfxWfdGyowdrY5Oppx+6FlJI5nIcbZDKSlXpj6nQd9Oz+9Mfi6WetlkdL2Y/f5nHLO5cuR0nC7aRs3wWjokX4zdn4WV2s5ItZNIs2QrJJVRIRkkqpkIyOVVMRkcqrYjJZFWxGTSJGIxP4kooYIoKKI06HRTGnQ6K4lYh0WRK1DosiVsR0VxK6I6Ko1fEY9kB3Vib4LVyq4kkcM1oqt4gfoEjrzea4yKYyplchBMOorkyLiOhMkKEhfudccsbCJyEMd/HzY+yZBDMUfM0Dma6P7FpdmccZOSquVN0JkqSpi62MirNjohlkKSly+RYetu37XJ9fhrqtLJxNStLfn7a6eAiilXl5HsfjoaF2eaKac+YAw+ryReHrq3+qp1SyZMaXsdb4+nkGCUX4/QK9I8erk24vdbzXnmPN0c/YaxYk3StoLP/wALK/EjgyXJ7mzxVUHJtOvyWpgxhhE73ARbA/JbemjR1QNoXhZHWeBYyeR1myFZJKqZCMjldUyEZHKqmIySVVsRksirYjJjSMRifxJRQgRQUURpkMimNWIdFcSsQ6K4lYh0WROrUOiuJ1dEdFUbq6IyKJA3wuz+xbLVxCz53xdew2On5dgzksF/Cibu+axNXBXXic05RXM1lLjnDlsGerMPTtGLgS4IY4t03QY6qPQ6bH5TB5BmCpdZ5NP3Ew8s/wBVe9OnydnRHJF8mbD1IRftM4/JUPTR8S2xwVtzbWEy/NWLBGuX4JbFyVqrM7NPuL+lt2n5rhy5MEdk7fl/PI6I6ab57EFzh07IsNe8MU5f76Pv+iVY4TaXFTfX/BXl0s62OXvcO3adlmvTO7v4ZGYijL5P3K+GNxdNGZkwtP2mbzD0AFmffu/Ja+CAYxOvx0WwOnsWrijRfEfJ3D8lRrfAdk0izZCMklVMhWRyqmQjJJVWxGRyqplbJZEjFZOaRiMT5pRQgRQUPBMhkUxp0OiuJWIdFUSsQ6LIiVsR0VRkrYsZFUZK6LHRsYW3C3yW5j3ivgMfn/iU5ZcxbksRFHM8km/4de//AEXndQm8jtb2ZEnbN/6OuGa12aW5cFpAjf7kdPES4VDvcndt7Jb+d+F9Dt0mFVxM+jyYLEzjsOtEfzDuXctBifJK19jvdGpvYqfHs0lIiKuD/wCXZ92vyXFnwShydoWq5HH8Y8XW6ULDWkIOZF2JB+Kzsk5zyKN7G32Tp4zi5edFuCf1ahUqubv/AJUO0/acS7T6/N1wJKTfnJfCjqyu5N/H7bG7rZIppmLvebw9e4fZ/qmeZuV+Mvx0/uypwSXwNrWvQjNJAW6QQ/ee667tHqVGTi7dfT5dehy5cXErKCxkUZvLXFxj03FHp4V6nTSt1/v8GPlw8O6NjUbSJ/ktWCEiYmfTT5Li1r3QWSSks6TEZLKSpkxWRykqmIySQlWxGSSqtiMmkVbEZOaVisT+JKKZBREQ8EyGRRGnQ6KoyTodFURKxMZFcZK1MdFUZK2LHRVGStixkTW8xdhimlKeLH0a5bPWHHnyyF8G/wDr2iXX6XPhqNRUebZJSpXJ0vq2cnmcRXsE0soyw2Jy31SsOPNkLzcYhbcs/Llk92786S+hzzxq+TTf1+iNrw7is7i6pa0hli1IwEJBilfX4dzfVUQw5OJ5KuzrxKUY1RucXmxlnerZjOnaLtBWnbx6ex+59F16fO7qWw6mm6apjr0mkJuYcvr7UNRPZ2qHOD4i4aHI8KQ5NnaO0DzT14yfYRRF5N8fNlxZdC3gjkVKXPfxV8ju7H1ndTcX7k/t5/A5Xh/iuvYrRV3nH12qHKLc/aPR9Wf5s+uvzWBqNNPG7S9l/Y9Dnwb8S3izeYPMRtmq9d+kRBNt1fuLvZvmlxx9riZy5Iew/kbwH5UTRTEUuwiLoqe6UVwzblvfw+YnN2thpcR2I2YYbMsUjP8Au2YSHoun1nOO0JSi+ngL6LF80mjbcOcWDctvjrbA1g2/Z5Y/Cfwf4r0/Y3bcss1iy1xPk1+H5mbrNAoLjhy8V/vgbyyfa+TLT1svbMqRFISz5MRkspKpsVkkpKpiMkkJVsRksirYjJpEjEYg0rFYnzQFMgoiIeCZDIeBJkOimMk6YyKYyTpjoqjNWJjplUZq1MdFcL7iZm83V0FbSGRyN/L/AGVxBjY+I4vV44Tm5Vlm3wmZeE2f5as/u6/FJmwzxyakvZ531/yiqWdQnB5NqteW/j9NvIuwmbjtXZ7dOD7Ry9szHeziMVWuL6ALl+u1va6RZeKV1b8ENgyW24rilLm/BLwX+Pmba9NlK+OkuTZSKvy3/dQ1+aLye6259X1ddLytQu4pfC/uW5FNK3L6Ihhr8R5Lk27xwUp6pcyE4g3zF+WundrroufjlkfFXC19/kCOPI17TW31MZOtlpI+RLY9dr6b7MEYcmd4v6fJCUbpTtx8etDTU62d/Zm3u47G8R4ZvUCYq+3lbG7JR6fhdvLT3VtZsMc2O48i7TZkt0fMc36CsnkLHMghjjk17NlpeUbfRZsdBnjsqcfM1odoRjybXwEUvQpxDi71W1kuIis1apjIdGEN8p6dw7306Lk18IYYO4KU+kS7FrpTe3LzOqtZecJdoxBXB27W1txOvIy1mTwSh+TpjhVc7Jo54pyZnFjmP/gJvzVSzcb33b+RZwtC48VLHbhvVJheWCQZOz2tF0aeE4TU4v3dyZJpxcWuZ2ePsXbNELdgQjaR+xEJbyD+5/avbRlLJjWVv3vt8fM8vqoKEqRmQ1S2cjJZDVTYjZLKSrbEZLISrbEZNISRismMkjEYg0oovzQAYFQg4EwUPAkyHRQBJkMimMk6YyKYzViY6KYzViY6Zsca2+dvYK79BDiyfAshzNzZx9HIVCqXoAs1j8UUg7hW80nsy1nBXbdHgq9brR4qV8AZ7/WqT83kmTdRMe9vh81gavSTjlcor2Wcqzdy2uB8D3uP8Gm4h9JXBmVw4VqeTajYqyR2oAniMRIg6sz/ADXLn45Q4eEqzazFOOzcZJpq4vw8GZwnph4QyEInZN6NyF+zM48wQ/NCMJ4+cba5NFsO0YSXtpwfmrX1Ol/xVibsJWqF2K0eu4OU3fr73wXJr+0Fihxfvvb4+fkjT0MI55ezK0udfgjpSWDMvVzcO3vPa+zcXt6LCw6nNke0pbedfOkbvcYsa2ilZtoMjmK0bgUxyR+5I+4vqtXHrNTjjTk3Ho939eZzzwYpO0t/L+A/WbV0uQQELg3k3erHx5lwu9hOGOPc11jBQsRETvIXuexZs+xVb9q/I6I6s00taOvMRG4D2tvV+9cPq9p0zoWW1sbmPEztEBNTnJzb7zbF/wB969Fj7MycK9h347f7zOGWpjfvIpxtbiHnTPYpjSx4tuDnSb55NPg3d/8Ai0MGhzxTckow59W2jh1k8co7O5fYbIaqbMhsmkNI2I2TSEq2xWSyEkbEYgySMVk5pGIxJIMUV5pQHhUINBMMPAkyChwEmQ6KIyTJjIojNOmMmUxmrEx0zeYMNzEfvPtW52XD2XIvxHP2/S3jabXW9WC1NRm5MsVSfm7B+9bUumjdQ/5lqlhDZ9JuBucQXcbZwxF6nR+0pLgS/eFHtjLboza69rw/BQh1GFpcLZ/EV8k+EhjCw3ZCxCHM+f5pXBPwIbSDA4CCN44cbWCPTwtCCiiuhDjuKcHi8dk4ix1eKkNofvo4xGMZD7tXXif1RpZSzQa5V8FzNvsnhjCW27f9galSTmE5m0XTtbX7/qszT6Np7vh+HidmTKq23LYWps4B625nr4BLtOXyWhi08XSUnJ+Rzzm+lCs3kMVFWeOxEc3XwNJsL9F2Z8Kira383+UU422+YzhzB8O5qm98IrUMYylHyXtzFrou7QaPFmhxuHDvVcbf8FGozzxy4U72/wCqR01fCYWvIMkVOJpA8Bk27T6rXx6LDB3GKTOOWeclTbPmXpk4g4jqcRY3HYl5ZinpTSV6teHmHzd2m7XTro2nYW7oscXFuXUy9VKSkkuh9HoyWJ8TRmtFvsywRFYLbs1kcevTy81m5Yq2vA7YbpWaGbsmQv8AhdeQmuFtdDmZKZqpsRsmkNI2KycySNiMQRJGKxJulFYknQABr1QFMCoQYKIw4SRCNAkwyHgSZMZDwNOmMmUAaZMZM6XCmA04yd28XtXpuzf+FfM68XukFfhyQLsdie/BZh5v7TA9SGPmxdvaL6e676rvLCavwdPHdG2WTgOYYSr+sBThimfw7H1b3do6fJlCHQ4ivJRojWmsjZkEzLmsAxd769zKELOcHtb6qEFzhTsxPDZjjmhLxRyNuF0k8cZqpJNeYYycXadM1Nng/hOyO2SkI/2GYrin2Xgl+xHTHW5l+4lPgzECLjXuT1+n4TEkj7Lgvdcok9Mk+aTJ4+AcK577d2e1/Q5DHr9EkeyMf7nKQz1svBJHR0ocdSrDVpxx164eGMFpYsUcceGKpHLOTk7e7Hc+P32+qsFNZksb65KUoXWj3jt5cgc0G+SshkpciuWO/EqrRx16YV3sFPy2/fSv2nSSlbseKpHN5ItLkuj+a8rrlWaRy5PeIDNcTZU2IM0jYrYgySsViTJKKxJOlFYt3QAL16oAPKEDFEI0UQjRJMEaBopjJjgNMmNY8DTpjJm2oXa8cDDIWha+xbmh1uOGPhk9zqxZEluVtfpv+P8ARdvrHD1+zLO9iE16n7/6KesMPX7MnexC9dqv+L9EfWGHr9mTvIhNbre/+inp+Hr9mHvEG1ys34/0U9Pw9fsyd4gXuQ+/+inp+Hr9mTvEY9ag979FPT8PX7MneIF7UHkX6Ken4ev2ZO8R57lf3v0U9Pw9fsyd4j3r1Vvx/oh6ww9fswd5Ex9o0/f/AEU9Y4ev2ZO9iY+1KLd8n/KSHrHD/wBvswd7E0t+eOSyZxv2Fg63LGeVyjy/wc2SSb2IjNcbZU2JM0rYrYkiSsViiJAAonQFFk6AAdeqADCBAkQjNyIRgkiEaJJgjRNGxrGgaZMaxommsNjRkRTGsaMiaw2MGRNYbDaVGw2E0qNhszzVLJZ7mqWSwXlQsFgPIhZLAKRCwWKKRK2LYopErYLFEaDYtiiNK2BsURJRbEkSABZEgKAToAAd0AA69UAGFCBIhDRCHuUCMEkQjBJEIwTTWNYwTRsNjRkRsNhtImsNjGkRsNhNKjYbC5qlks9zUbDZ7moWSzDyqWCwXkQslgFIhYLFlIhYLFkaFi2LI0tgsWRIAFkSABRElFAdQADugAF36IABUIeZQhllCBsiEJiRCGxKBDYkQhiaIQ2NGw2MY0bDYbGjYbC5iNhsLmKWSwuYjYbPcxSyWe5ilksxzELBYLyKWSwXNCwWA5oWCwCNCwWA5oWCxbkgCwHJQADkgAB0AAu6BAdVAGECHlAHkQhMoQJEITKBDZEgTEiENiUsNhMaIQ2NENhb1LJZnejYbM71LJZnmfFSyWY3qWSzzyKWSzDmpYLBc0LJYDmgAFyUsADkgQFyQBYDqABdAALoABd1CGEAHtVCGGUIZUCZZEhllCBKBCZEITIkCZQITIkCUCZ7SIQu0oQz2lCHu0iQ92kCGO0oQw+5QgLqAMOgQB0AGHUAA6BDCgAXQACoQwoQw6ADyhD/2Q==;" vertex="1" parent="77e6c97f196da883-7">
          <mxGeometry y="30" width="190" height="190" as="geometry" />
        </mxCell>
      </root>
    </mxGraphModel>
  </diagram>
</mxfile>
